<?xml version="1.0" encoding="UTF-8" standalone="no"?>
<!DOCTYPE svg PUBLIC "-//W3C//DTD SVG 1.1//EN"
 "http://www.w3.org/Graphics/SVG/1.1/DTD/svg11.dtd">
<!-- Generated by graphviz version 2.40.1 (20161225.0304)
 -->
<!-- Title: compactRelationshipsDiagram Pages: 1 -->
<svg width="872pt" height="391pt"
 viewBox="0.00 0.00 872.00 391.20" xmlns="http://www.w3.org/2000/svg" xmlns:xlink="http://www.w3.org/1999/xlink">
<g id="graph0" class="graph" transform="scale(1 1) rotate(0) translate(4 387.2)">
<title>compactRelationshipsDiagram</title>
<polygon fill="#ffffff" stroke="transparent" points="-4,4 -4,-387.2 868,-387.2 868,4 -4,4"/>
<text text-anchor="middle" x="72.4936" y="-7.3" font-family="Helvetica,sans-Serif" font-size="11.00" fill="#000000">Generated by SchemaSpy</text>
<!-- CodeTable -->
<g id="node1" class="node">
<title>CodeTable</title>
<g id="a_node1"><a xlink:href="../../tables/CodeTable.html" xlink:title="CodeTable" target="_top">
<polygon fill="#ffffff" stroke="transparent" points="190,-142.2 190,-247.2 381,-247.2 381,-142.2 190,-142.2"/>
<polygon fill="#f5f5f5" stroke="transparent" points="190.5,-223.7 190.5,-246.7 381.5,-246.7 381.5,-223.7 190.5,-223.7"/>
<polygon fill="none" stroke="#000000" points="190.5,-223.7 190.5,-246.7 381.5,-246.7 381.5,-223.7 190.5,-223.7"/>
<text text-anchor="start" x="195.5" y="-232.8" font-family="Helvetica,sans-Serif" font-weight="bold" font-size="11.00" fill="#000000">CodeTable</text>
<text text-anchor="start" x="346.5437" y="-231.8" font-family="Helvetica,sans-Serif" font-size="11.00" fill="#000000">[table]</text>
<polygon fill="none" stroke="#000000" points="190.5,-201.7 190.5,-223.7 381.5,-223.7 381.5,-201.7 190.5,-201.7"/>
<image xlink:href="../../images/primaryKeys.png" width="11px" height="12px" preserveAspectRatio="xMinYMin meet" x="195.5" y="-218.7"/>
<text text-anchor="start" x="210.5" y="-208.8" font-family="Helvetica,sans-Serif" font-size="11.00" fill="#000000">cldf_id</text>
<polygon fill="none" stroke="#000000" points="190.5,-179.7 190.5,-201.7 381.5,-201.7 381.5,-179.7 190.5,-179.7"/>
<image xlink:href="../../images/foreignKeys.png" width="11px" height="12px" preserveAspectRatio="xMinYMin meet" x="195.5" y="-196.7"/>
<text text-anchor="start" x="210.5" y="-186.8" font-family="Helvetica,sans-Serif" font-size="11.00" fill="#000000">cldf_parameterReference</text>
<polygon fill="none" stroke="#000000" points="190.5,-160.7 190.5,-179.7 381.5,-179.7 381.5,-160.7 190.5,-160.7"/>
<text text-anchor="start" x="193.5" y="-166.8" font-family="Helvetica,sans-Serif" font-size="11.00" fill="#000000">...</text>
<polygon fill="#ffffff" stroke="transparent" points="190.5,-141.7 190.5,-160.7 263.5,-160.7 263.5,-141.7 190.5,-141.7"/>
<polygon fill="none" stroke="#000000" points="190.5,-141.7 190.5,-160.7 263.5,-160.7 263.5,-141.7 190.5,-141.7"/>
<text text-anchor="start" x="193.5" y="-147.8" font-family="Helvetica,sans-Serif" font-size="11.00" fill="#000000">&lt; 1</text>
<polygon fill="#ffffff" stroke="transparent" points="263.5,-141.7 263.5,-160.7 333.5,-160.7 333.5,-141.7 263.5,-141.7"/>
<polygon fill="none" stroke="#000000" points="263.5,-141.7 263.5,-160.7 333.5,-160.7 333.5,-141.7 263.5,-141.7"/>
<text text-anchor="start" x="291.9956" y="-147.8" font-family="Helvetica,sans-Serif" font-size="11.00" fill="#000000">10 rows</text>
<polygon fill="#ffffff" stroke="transparent" points="333.5,-141.7 333.5,-160.7 381.5,-160.7 381.5,-141.7 333.5,-141.7"/>
<polygon fill="none" stroke="#000000" points="333.5,-141.7 333.5,-160.7 381.5,-160.7 381.5,-141.7 333.5,-141.7"/>
<text text-anchor="start" x="362.9053" y="-147.8" font-family="Helvetica,sans-Serif" font-size="11.00" fill="#000000">1 &gt;</text>
</a>
</g>
</g>
<!-- ParameterTable -->
<g id="node4" class="node">
<title>ParameterTable</title>
<g id="a_node4"><a xlink:href="../../tables/ParameterTable.html" xlink:title="ParameterTable" target="_top">
<polygon fill="#ffffff" stroke="transparent" points="8,-182.2 8,-265.2 141,-265.2 141,-182.2 8,-182.2"/>
<polygon fill="#f5f5f5" stroke="transparent" points="8.5,-241.7 8.5,-264.7 141.5,-264.7 141.5,-241.7 8.5,-241.7"/>
<polygon fill="none" stroke="#000000" points="8.5,-241.7 8.5,-264.7 141.5,-264.7 141.5,-241.7 8.5,-241.7"/>
<text text-anchor="start" x="13.5" y="-250.8" font-family="Helvetica,sans-Serif" font-weight="bold" font-size="11.00" fill="#000000">ParameterTable</text>
<text text-anchor="start" x="106.5437" y="-249.8" font-family="Helvetica,sans-Serif" font-size="11.00" fill="#000000">[table]</text>
<polygon fill="none" stroke="#000000" points="8.5,-219.7 8.5,-241.7 141.5,-241.7 141.5,-219.7 8.5,-219.7"/>
<image xlink:href="../../images/primaryKeys.png" width="11px" height="12px" preserveAspectRatio="xMinYMin meet" x="13.5" y="-236.7"/>
<text text-anchor="start" x="28.5" y="-226.8" font-family="Helvetica,sans-Serif" font-size="11.00" fill="#000000">cldf_id</text>
<polygon fill="none" stroke="#000000" points="8.5,-200.7 8.5,-219.7 141.5,-219.7 141.5,-200.7 8.5,-200.7"/>
<text text-anchor="start" x="11.5" y="-206.8" font-family="Helvetica,sans-Serif" font-size="11.00" fill="#000000">...</text>
<polygon fill="#ffffff" stroke="transparent" points="8.5,-181.7 8.5,-200.7 54.5,-200.7 54.5,-181.7 8.5,-181.7"/>
<polygon fill="none" stroke="#000000" points="8.5,-181.7 8.5,-200.7 54.5,-200.7 54.5,-181.7 8.5,-181.7"/>
<text text-anchor="start" x="11.5" y="-187.8" font-family="Helvetica,sans-Serif" font-size="11.00" fill="#000000"> &#160;</text>
<polygon fill="#ffffff" stroke="transparent" points="54.5,-181.7 54.5,-200.7 103.5,-200.7 103.5,-181.7 54.5,-181.7"/>
<polygon fill="none" stroke="#000000" points="54.5,-181.7 54.5,-200.7 103.5,-200.7 103.5,-181.7 54.5,-181.7"/>
<text text-anchor="start" x="73.6105" y="-187.8" font-family="Helvetica,sans-Serif" font-size="11.00" fill="#000000">1 row</text>
<polygon fill="#ffffff" stroke="transparent" points="103.5,-181.7 103.5,-200.7 141.5,-200.7 141.5,-181.7 103.5,-181.7"/>
<polygon fill="none" stroke="#000000" points="103.5,-181.7 103.5,-200.7 141.5,-200.7 141.5,-181.7 103.5,-181.7"/>
<text text-anchor="start" x="122.9053" y="-187.8" font-family="Helvetica,sans-Serif" font-size="11.00" fill="#000000">2 &gt;</text>
</a>
</g>
</g>
<!-- CodeTable&#45;&gt;ParameterTable -->
<g id="edge1" class="edge">
<title>CodeTable:w&#45;&gt;ParameterTable:e</title>
<path fill="none" stroke="#000000" d="M176.7637,-195.2885C163.8632,-205.7952 163.6826,-230.7 141.5,-230.7"/>
<polygon fill="#000000" stroke="#000000" points="182.9121,-193.2347 191.6406,-194.1145 186.7061,-191.9673 190.5,-190.7 190.5,-190.7 190.5,-190.7 186.7061,-191.9673 189.3594,-187.2855 182.9121,-193.2347 182.9121,-193.2347"/>
<ellipse fill="none" stroke="#000000" cx="179.877" cy="-194.2486" rx="3.2" ry="3.2"/>
</g>
<!-- LanguageTable -->
<g id="node2" class="node">
<title>LanguageTable</title>
<g id="a_node2"><a xlink:href="../../tables/LanguageTable.html" xlink:title="LanguageTable" target="_top">
<polygon fill="#ffffff" stroke="transparent" points="213,-296.2 213,-379.2 358,-379.2 358,-296.2 213,-296.2"/>
<polygon fill="#f5f5f5" stroke="transparent" points="213.5,-355.7 213.5,-378.7 358.5,-378.7 358.5,-355.7 213.5,-355.7"/>
<polygon fill="none" stroke="#000000" points="213.5,-355.7 213.5,-378.7 358.5,-378.7 358.5,-355.7 213.5,-355.7"/>
<text text-anchor="start" x="218.5" y="-364.8" font-family="Helvetica,sans-Serif" font-weight="bold" font-size="11.00" fill="#000000">LanguageTable</text>
<text text-anchor="start" x="323.5437" y="-363.8" font-family="Helvetica,sans-Serif" font-size="11.00" fill="#000000">[table]</text>
<polygon fill="none" stroke="#000000" points="213.5,-333.7 213.5,-355.7 358.5,-355.7 358.5,-333.7 213.5,-333.7"/>
<image xlink:href="../../images/primaryKeys.png" width="11px" height="12px" preserveAspectRatio="xMinYMin meet" x="218.5" y="-350.7"/>
<text text-anchor="start" x="233.5" y="-340.8" font-family="Helvetica,sans-Serif" font-size="11.00" fill="#000000">cldf_id</text>
<polygon fill="none" stroke="#000000" points="213.5,-314.7 213.5,-333.7 358.5,-333.7 358.5,-314.7 213.5,-314.7"/>
<text text-anchor="start" x="216.5" y="-320.8" font-family="Helvetica,sans-Serif" font-size="11.00" fill="#000000">...</text>
<polygon fill="#ffffff" stroke="transparent" points="213.5,-295.7 213.5,-314.7 256.5,-314.7 256.5,-295.7 213.5,-295.7"/>
<polygon fill="none" stroke="#000000" points="213.5,-295.7 213.5,-314.7 256.5,-314.7 256.5,-295.7 213.5,-295.7"/>
<text text-anchor="start" x="216.5" y="-301.8" font-family="Helvetica,sans-Serif" font-size="11.00" fill="#000000"> &#160;</text>
<polygon fill="#ffffff" stroke="transparent" points="256.5,-295.7 256.5,-314.7 321.5,-314.7 321.5,-295.7 256.5,-295.7"/>
<polygon fill="none" stroke="#000000" points="256.5,-295.7 256.5,-314.7 321.5,-314.7 321.5,-295.7 256.5,-295.7"/>
<text text-anchor="start" x="273.8807" y="-301.8" font-family="Helvetica,sans-Serif" font-size="11.00" fill="#000000">410 rows</text>
<polygon fill="#ffffff" stroke="transparent" points="321.5,-295.7 321.5,-314.7 358.5,-314.7 358.5,-295.7 321.5,-295.7"/>
<polygon fill="none" stroke="#000000" points="321.5,-295.7 321.5,-314.7 358.5,-314.7 358.5,-295.7 321.5,-295.7"/>
<text text-anchor="start" x="339.9053" y="-301.8" font-family="Helvetica,sans-Serif" font-size="11.00" fill="#000000">1 &gt;</text>
</a>
</g>
</g>
<!-- MediaTable -->
<g id="node3" class="node">
<title>MediaTable</title>
<g id="a_node3"><a xlink:href="../../tables/MediaTable.html" xlink:title="MediaTable" target="_top">
<polygon fill="#ffffff" stroke="transparent" points="217,-38.2 217,-121.2 354,-121.2 354,-38.2 217,-38.2"/>
<polygon fill="#f5f5f5" stroke="transparent" points="217.5,-97.7 217.5,-120.7 354.5,-120.7 354.5,-97.7 217.5,-97.7"/>
<polygon fill="none" stroke="#000000" points="217.5,-97.7 217.5,-120.7 354.5,-120.7 354.5,-97.7 217.5,-97.7"/>
<text text-anchor="start" x="222.5" y="-106.8" font-family="Helvetica,sans-Serif" font-weight="bold" font-size="11.00" fill="#000000">MediaTable</text>
<text text-anchor="start" x="319.5437" y="-105.8" font-family="Helvetica,sans-Serif" font-size="11.00" fill="#000000">[table]</text>
<polygon fill="none" stroke="#000000" points="217.5,-75.7 217.5,-97.7 354.5,-97.7 354.5,-75.7 217.5,-75.7"/>
<image xlink:href="../../images/primaryKeys.png" width="11px" height="12px" preserveAspectRatio="xMinYMin meet" x="222.5" y="-92.7"/>
<text text-anchor="start" x="237.5" y="-82.8" font-family="Helvetica,sans-Serif" font-size="11.00" fill="#000000">cldf_id</text>
<polygon fill="none" stroke="#000000" points="217.5,-56.7 217.5,-75.7 354.5,-75.7 354.5,-56.7 217.5,-56.7"/>
<text text-anchor="start" x="220.5" y="-62.8" font-family="Helvetica,sans-Serif" font-size="11.00" fill="#000000">...</text>
<polygon fill="#ffffff" stroke="transparent" points="217.5,-37.7 217.5,-56.7 251.5,-56.7 251.5,-37.7 217.5,-37.7"/>
<polygon fill="none" stroke="#000000" points="217.5,-37.7 217.5,-56.7 251.5,-56.7 251.5,-37.7 217.5,-37.7"/>
<text text-anchor="start" x="220.5" y="-43.8" font-family="Helvetica,sans-Serif" font-size="11.00" fill="#000000"> &#160;</text>
<polygon fill="#ffffff" stroke="transparent" points="251.5,-37.7 251.5,-56.7 321.5,-56.7 321.5,-37.7 251.5,-37.7"/>
<polygon fill="none" stroke="#000000" points="251.5,-37.7 251.5,-56.7 321.5,-56.7 321.5,-37.7 251.5,-37.7"/>
<text text-anchor="start" x="264.7089" y="-43.8" font-family="Helvetica,sans-Serif" font-size="11.00" fill="#000000">1,007 rows</text>
<polygon fill="#ffffff" stroke="transparent" points="321.5,-37.7 321.5,-56.7 354.5,-56.7 354.5,-37.7 321.5,-37.7"/>
<polygon fill="none" stroke="#000000" points="321.5,-37.7 321.5,-56.7 354.5,-56.7 354.5,-37.7 321.5,-37.7"/>
<text text-anchor="start" x="335.9053" y="-43.8" font-family="Helvetica,sans-Serif" font-size="11.00" fill="#000000">1 &gt;</text>
</a>
</g>
</g>
<!-- SourceTable -->
<g id="node5" class="node">
<title>SourceTable</title>
<g id="a_node5"><a xlink:href="../../tables/SourceTable.html" xlink:title="SourceTable" target="_top">
<polygon fill="#ffffff" stroke="transparent" points="468,-56.2 468,-139.2 583,-139.2 583,-56.2 468,-56.2"/>
<polygon fill="#f5f5f5" stroke="transparent" points="468.5,-115.7 468.5,-138.7 583.5,-138.7 583.5,-115.7 468.5,-115.7"/>
<polygon fill="none" stroke="#000000" points="468.5,-115.7 468.5,-138.7 583.5,-138.7 583.5,-115.7 468.5,-115.7"/>
<text text-anchor="start" x="473.5" y="-124.8" font-family="Helvetica,sans-Serif" font-weight="bold" font-size="11.00" fill="#000000">SourceTable</text>
<text text-anchor="start" x="548.5437" y="-123.8" font-family="Helvetica,sans-Serif" font-size="11.00" fill="#000000">[table]</text>
<polygon fill="none" stroke="#000000" points="468.5,-93.7 468.5,-115.7 583.5,-115.7 583.5,-93.7 468.5,-93.7"/>
<image xlink:href="../../images/primaryKeys.png" width="11px" height="12px" preserveAspectRatio="xMinYMin meet" x="473.5" y="-110.7"/>
<text text-anchor="start" x="488.5" y="-100.8" font-family="Helvetica,sans-Serif" font-size="11.00" fill="#000000">id</text>
<polygon fill="none" stroke="#000000" points="468.5,-74.7 468.5,-93.7 583.5,-93.7 583.5,-74.7 468.5,-74.7"/>
<text text-anchor="start" x="471.5" y="-80.8" font-family="Helvetica,sans-Serif" font-size="11.00" fill="#000000">...</text>
<polygon fill="#ffffff" stroke="transparent" points="468.5,-55.7 468.5,-74.7 502.5,-74.7 502.5,-55.7 468.5,-55.7"/>
<polygon fill="none" stroke="#000000" points="468.5,-55.7 468.5,-74.7 502.5,-74.7 502.5,-55.7 468.5,-55.7"/>
<text text-anchor="start" x="471.5" y="-61.8" font-family="Helvetica,sans-Serif" font-size="11.00" fill="#000000"> &#160;</text>
<polygon fill="#ffffff" stroke="transparent" points="502.5,-55.7 502.5,-74.7 551.5,-74.7 551.5,-55.7 502.5,-55.7"/>
<polygon fill="none" stroke="#000000" points="502.5,-55.7 502.5,-74.7 551.5,-74.7 551.5,-55.7 502.5,-55.7"/>
<text text-anchor="start" x="516.1105" y="-61.8" font-family="Helvetica,sans-Serif" font-size="11.00" fill="#000000">0 rows</text>
<polygon fill="#ffffff" stroke="transparent" points="551.5,-55.7 551.5,-74.7 583.5,-74.7 583.5,-55.7 551.5,-55.7"/>
<polygon fill="none" stroke="#000000" points="551.5,-55.7 551.5,-74.7 583.5,-74.7 583.5,-55.7 551.5,-55.7"/>
<text text-anchor="start" x="564.9053" y="-61.8" font-family="Helvetica,sans-Serif" font-size="11.00" fill="#000000">1 &gt;</text>
</a>
</g>
</g>
<!-- ValueTable -->
<g id="node6" class="node">
<title>ValueTable</title>
<g id="a_node6"><a xlink:href="../../tables/ValueTable.html" xlink:title="ValueTable" target="_top">
<polygon fill="#ffffff" stroke="transparent" points="430,-160.2 430,-331.2 621,-331.2 621,-160.2 430,-160.2"/>
<polygon fill="#f5f5f5" stroke="transparent" points="430.5,-307.7 430.5,-330.7 621.5,-330.7 621.5,-307.7 430.5,-307.7"/>
<polygon fill="none" stroke="#000000" points="430.5,-307.7 430.5,-330.7 621.5,-330.7 621.5,-307.7 430.5,-307.7"/>
<text text-anchor="start" x="435.5" y="-316.8" font-family="Helvetica,sans-Serif" font-weight="bold" font-size="11.00" fill="#000000">ValueTable</text>
<text text-anchor="start" x="586.5437" y="-315.8" font-family="Helvetica,sans-Serif" font-size="11.00" fill="#000000">[table]</text>
<polygon fill="none" stroke="#000000" points="430.5,-285.7 430.5,-307.7 621.5,-307.7 621.5,-285.7 430.5,-285.7"/>
<image xlink:href="../../images/primaryKeys.png" width="11px" height="12px" preserveAspectRatio="xMinYMin meet" x="435.5" y="-302.7"/>
<text text-anchor="start" x="450.5" y="-292.8" font-family="Helvetica,sans-Serif" font-size="11.00" fill="#000000">cldf_id</text>
<polygon fill="none" stroke="#000000" points="430.5,-263.7 430.5,-285.7 621.5,-285.7 621.5,-263.7 430.5,-263.7"/>
<image xlink:href="../../images/foreignKeys.png" width="11px" height="12px" preserveAspectRatio="xMinYMin meet" x="435.5" y="-280.7"/>
<text text-anchor="start" x="450.5" y="-270.8" font-family="Helvetica,sans-Serif" font-size="11.00" fill="#000000">cldf_languageReference</text>
<polygon fill="none" stroke="#000000" points="430.5,-241.7 430.5,-263.7 621.5,-263.7 621.5,-241.7 430.5,-241.7"/>
<image xlink:href="../../images/foreignKeys.png" width="11px" height="12px" preserveAspectRatio="xMinYMin meet" x="435.5" y="-258.7"/>
<text text-anchor="start" x="450.5" y="-248.8" font-family="Helvetica,sans-Serif" font-size="11.00" fill="#000000">cldf_parameterReference</text>
<polygon fill="none" stroke="#000000" points="430.5,-219.7 430.5,-241.7 621.5,-241.7 621.5,-219.7 430.5,-219.7"/>
<image xlink:href="../../images/foreignKeys.png" width="11px" height="12px" preserveAspectRatio="xMinYMin meet" x="435.5" y="-236.7"/>
<text text-anchor="start" x="450.5" y="-226.8" font-family="Helvetica,sans-Serif" font-size="11.00" fill="#000000">cldf_codeReference</text>
<polygon fill="none" stroke="#000000" points="430.5,-197.7 430.5,-219.7 621.5,-219.7 621.5,-197.7 430.5,-197.7"/>
<image xlink:href="../../images/foreignKeys.png" width="11px" height="12px" preserveAspectRatio="xMinYMin meet" x="435.5" y="-214.7"/>
<text text-anchor="start" x="450.5" y="-204.8" font-family="Helvetica,sans-Serif" font-size="11.00" fill="#000000">cldf_mediaReference</text>
<polygon fill="none" stroke="#000000" points="430.5,-178.7 430.5,-197.7 621.5,-197.7 621.5,-178.7 430.5,-178.7"/>
<text text-anchor="start" x="433.5" y="-184.8" font-family="Helvetica,sans-Serif" font-size="11.00" fill="#000000">...</text>
<polygon fill="#ffffff" stroke="transparent" points="430.5,-159.7 430.5,-178.7 496.5,-178.7 496.5,-159.7 430.5,-159.7"/>
<polygon fill="none" stroke="#000000" points="430.5,-159.7 430.5,-178.7 496.5,-178.7 496.5,-159.7 430.5,-159.7"/>
<text text-anchor="start" x="433.5" y="-165.8" font-family="Helvetica,sans-Serif" font-size="11.00" fill="#000000">&lt; 4</text>
<polygon fill="#ffffff" stroke="transparent" points="496.5,-159.7 496.5,-178.7 577.5,-178.7 577.5,-159.7 496.5,-159.7"/>
<polygon fill="none" stroke="#000000" points="496.5,-159.7 496.5,-178.7 577.5,-178.7 577.5,-159.7 496.5,-159.7"/>
<text text-anchor="start" x="520.7089" y="-165.8" font-family="Helvetica,sans-Serif" font-size="11.00" fill="#000000">1,007 rows</text>
<polygon fill="#ffffff" stroke="transparent" points="577.5,-159.7 577.5,-178.7 621.5,-178.7 621.5,-159.7 577.5,-159.7"/>
<polygon fill="none" stroke="#000000" points="577.5,-159.7 577.5,-178.7 621.5,-178.7 621.5,-159.7 577.5,-159.7"/>
<text text-anchor="start" x="602.9053" y="-165.8" font-family="Helvetica,sans-Serif" font-size="11.00" fill="#000000">1 &gt;</text>
</a>
</g>
</g>
<!-- ValueTable&#45;&gt;CodeTable -->
<g id="edge2" class="edge">
<title>ValueTable:w&#45;&gt;CodeTable:e</title>
<path fill="none" stroke="#000000" d="M416.3186,-227.8875C404.7124,-222.825 398.9005,-212.7 381.5,-212.7"/>
<polygon fill="#000000" stroke="#000000" points="422.6528,-229.1437 429.7997,-234.2312 426.5764,-229.9218 430.5,-230.7 430.5,-230.7 430.5,-230.7 426.5764,-229.9218 431.2003,-227.1688 422.6528,-229.1437 422.6528,-229.1437"/>
<ellipse fill="none" stroke="#000000" cx="419.514" cy="-228.5212" rx="3.2" ry="3.2"/>
</g>
<!-- ValueTable&#45;&gt;LanguageTable -->
<g id="edge3" class="edge">
<title>ValueTable:w&#45;&gt;LanguageTable:e</title>
<path fill="none" stroke="#000000" d="M416.0607,-277.8897C389.291,-291.5837 397.3775,-344.7 358.5,-344.7"/>
<polygon fill="#000000" stroke="#000000" points="422.6883,-276.4256 431.2765,-278.2153 426.5942,-275.5628 430.5,-274.7 430.5,-274.7 430.5,-274.7 426.5942,-275.5628 429.7235,-271.1847 422.6883,-276.4256 422.6883,-276.4256"/>
<ellipse fill="none" stroke="#000000" cx="419.5637" cy="-277.1159" rx="3.2" ry="3.2"/>
</g>
<!-- ValueTable&#45;&gt;MediaTable -->
<g id="edge4" class="edge">
<title>ValueTable:w&#45;&gt;MediaTable:e</title>
<path fill="none" stroke="#000000" d="M416.179,-206.0384C374.8234,-188.1971 412.7679,-86.7 354.5,-86.7"/>
<polygon fill="#000000" stroke="#000000" points="422.6347,-207.2382 429.8422,-212.2394 426.5673,-207.9691 430.5,-208.7 430.5,-208.7 430.5,-208.7 426.5673,-207.9691 431.1578,-205.1606 422.6347,-207.2382 422.6347,-207.2382"/>
<ellipse fill="none" stroke="#000000" cx="419.4886" cy="-206.6534" rx="3.2" ry="3.2"/>
</g>
<!-- ValueTable&#45;&gt;ParameterTable -->
<g id="edge5" class="edge">
<title>ValueTable:w&#45;&gt;ParameterTable:e</title>
<path fill="none" stroke="#000000" d="M416.0864,-253.6775C407.6642,-254.9054 401.6044,-256.9434 389,-257.7 297.1653,-263.2123 270.0525,-284.3601 182,-257.7 161.2949,-251.431 163.1333,-230.7 141.5,-230.7"/>
<polygon fill="#000000" stroke="#000000" points="422.5183,-253.2413 430.7436,-256.2917 426.5092,-252.9707 430.5,-252.7 430.5,-252.7 430.5,-252.7 426.5092,-252.9707 430.2564,-249.1083 422.5183,-253.2413 422.5183,-253.2413"/>
<ellipse fill="none" stroke="#000000" cx="419.3257" cy="-253.4579" rx="3.2" ry="3.2"/>
</g>
<!-- ValueTable_SourceTable -->
<g id="node7" class="node">
<title>ValueTable_SourceTable</title>
<g id="a_node7"><a xlink:href="../../tables/ValueTable_SourceTable.html" xlink:title="ValueTable_SourceTable" target="_top">
<polygon fill="#ffffff" stroke="transparent" points="670,-141.2 670,-246.2 856,-246.2 856,-141.2 670,-141.2"/>
<polygon fill="#f5f5f5" stroke="transparent" points="670,-222.7 670,-245.7 856,-245.7 856,-222.7 670,-222.7"/>
<polygon fill="none" stroke="#000000" points="670,-222.7 670,-245.7 856,-245.7 856,-222.7 670,-222.7"/>
<text text-anchor="start" x="675" y="-231.8" font-family="Helvetica,sans-Serif" font-weight="bold" font-size="11.00" fill="#000000">ValueTable_SourceTable</text>
<text text-anchor="start" x="821.0437" y="-230.8" font-family="Helvetica,sans-Serif" font-size="11.00" fill="#000000">[table]</text>
<polygon fill="none" stroke="#000000" points="670,-200.7 670,-222.7 856,-222.7 856,-200.7 670,-200.7"/>
<image xlink:href="../../images/foreignKeys.png" width="11px" height="12px" preserveAspectRatio="xMinYMin meet" x="675" y="-217.7"/>
<text text-anchor="start" x="690" y="-207.8" font-family="Helvetica,sans-Serif" font-size="11.00" fill="#000000">ValueTable_cldf_id</text>
<polygon fill="none" stroke="#000000" points="670,-178.7 670,-200.7 856,-200.7 856,-178.7 670,-178.7"/>
<image xlink:href="../../images/foreignKeys.png" width="11px" height="12px" preserveAspectRatio="xMinYMin meet" x="675" y="-195.7"/>
<text text-anchor="start" x="690" y="-185.8" font-family="Helvetica,sans-Serif" font-size="11.00" fill="#000000">SourceTable_id</text>
<polygon fill="none" stroke="#000000" points="670,-159.7 670,-178.7 856,-178.7 856,-159.7 670,-159.7"/>
<text text-anchor="start" x="673" y="-165.8" font-family="Helvetica,sans-Serif" font-size="11.00" fill="#000000">...</text>
<polygon fill="#ffffff" stroke="transparent" points="670,-140.7 670,-159.7 748,-159.7 748,-140.7 670,-140.7"/>
<polygon fill="none" stroke="#000000" points="670,-140.7 670,-159.7 748,-159.7 748,-140.7 670,-140.7"/>
<text text-anchor="start" x="673" y="-146.8" font-family="Helvetica,sans-Serif" font-size="11.00" fill="#000000">&lt; 2</text>
<polygon fill="#ffffff" stroke="transparent" points="748,-140.7 748,-159.7 815,-159.7 815,-140.7 748,-140.7"/>
<polygon fill="none" stroke="#000000" points="748,-140.7 748,-159.7 815,-159.7 815,-140.7 748,-140.7"/>
<text text-anchor="start" x="779.6105" y="-146.8" font-family="Helvetica,sans-Serif" font-size="11.00" fill="#000000">0 rows</text>
<polygon fill="#ffffff" stroke="transparent" points="815,-140.7 815,-159.7 856,-159.7 856,-140.7 815,-140.7"/>
<polygon fill="none" stroke="#000000" points="815,-140.7 815,-159.7 856,-159.7 856,-140.7 815,-140.7"/>
<text text-anchor="start" x="846.8862" y="-146.8" font-family="Helvetica,sans-Serif" font-size="11.00" fill="#000000"> &#160;</text>
</a>
</g>
</g>
<!-- ValueTable_SourceTable&#45;&gt;SourceTable -->
<g id="edge6" class="edge">
<title>ValueTable_SourceTable:w&#45;&gt;SourceTable:e</title>
<path fill="none" stroke="#000000" d="M658.8004,-180.6035C636.3311,-158.6758 588.8689,-104.7 583.5,-104.7"/>
<polygon fill="#000000" stroke="#000000" points="663.7902,-184.6563 667.7303,-192.4944 666.8951,-187.1781 670,-189.7 670,-189.7 670,-189.7 666.8951,-187.1781 672.2697,-186.9056 663.7902,-184.6563 663.7902,-184.6563"/>
<ellipse fill="none" stroke="#000000" cx="661.3063" cy="-182.6388" rx="3.2" ry="3.2"/>
</g>
<!-- ValueTable_SourceTable&#45;&gt;ValueTable -->
<g id="edge7" class="edge">
<title>ValueTable_SourceTable:w&#45;&gt;ValueTable:e</title>
<path fill="none" stroke="#000000" d="M656.0585,-216.27C635.7091,-233.9253 658.8784,-296.7 621.5,-296.7"/>
<polygon fill="#000000" stroke="#000000" points="662.398,-214.1919 671.1214,-215.1209 666.199,-212.946 670,-211.7 670,-211.7 670,-211.7 666.199,-212.946 668.8786,-208.2791 662.398,-214.1919 662.398,-214.1919"/>
<ellipse fill="none" stroke="#000000" cx="659.3572" cy="-215.1887" rx="3.2" ry="3.2"/>
</g>
</g>
</svg>

